<svg xmlns="http://www.w3.org/2000/svg" width="24" height="24" fill="none" viewBox="0 0 24 24"><path d="M1.144 5.817 C 0.937 5.894,0.656 6.176,0.575 6.388 C 0.479 6.638,0.515 7.052,0.650 7.261 C 0.707 7.349,3.018 9.680,5.786 12.442 C 9.628 16.275,10.868 17.490,11.023 17.571 C 11.607 17.877,12.393 17.877,12.977 17.571 C 13.132 17.490,14.372 16.275,18.214 12.442 C 20.982 9.680,23.293 7.349,23.350 7.261 C 23.486 7.050,23.521 6.638,23.423 6.384 C 23.334 6.150,23.023 5.860,22.795 5.798 C 22.578 5.740,22.217 5.769,22.036 5.860 C 21.961 5.898,19.672 8.154,16.950 10.874 L 12.000 15.819 7.050 10.874 C 4.327 8.154,2.037 5.897,1.960 5.858 C 1.773 5.764,1.344 5.742,1.144 5.817 " stroke="none" fill-rule="evenodd" fill="black"></path></svg>