<svg xmlns="http://www.w3.org/2000/svg" width="24" height="24" fill="none" viewBox="0 0 24 24"><path d="M6.340 0.592 C 6.118 0.697,5.855 0.995,5.798 1.206 C 5.740 1.422,5.769 1.783,5.860 1.964 C 5.898 2.039,8.154 4.327,10.874 7.050 L 15.819 12.000 10.874 16.950 C 8.154 19.672,5.898 21.961,5.860 22.036 C 5.769 22.217,5.740 22.578,5.798 22.795 C 5.860 23.023,6.150 23.334,6.384 23.423 C 6.638 23.521,7.050 23.486,7.261 23.350 C 7.349 23.293,9.680 20.982,12.442 18.214 C 16.275 14.372,17.490 13.132,17.571 12.977 C 17.877 12.393,17.877 11.607,17.571 11.023 C 17.490 10.868,16.275 9.628,12.442 5.786 C 9.680 3.018,7.348 0.706,7.260 0.649 C 7.042 0.509,6.578 0.480,6.340 0.592 " stroke="none" fill-rule="evenodd" fill="black"></path></svg>