<svg xmlns="http://www.w3.org/2000/svg" width="24" height="24" fill="none" viewBox="0 0 24 24"><path d="M7.962 0.585 C 6.388 0.799,4.813 1.502,3.560 2.551 C 1.951 3.897,0.857 5.905,0.582 8.012 C 0.503 8.617,0.503 9.663,0.582 10.268 C 0.857 12.375,1.951 14.383,3.560 15.729 C 4.865 16.822,6.465 17.514,8.159 17.719 C 8.595 17.772,9.685 17.772,10.121 17.719 C 11.580 17.542,12.997 16.997,14.160 16.165 L 14.500 15.921 18.220 19.636 C 22.342 23.751,22.063 23.506,22.574 23.473 C 23.083 23.441,23.441 23.083,23.473 22.574 C 23.506 22.063,23.751 22.342,19.636 18.220 L 15.921 14.500 16.165 14.160 C 16.997 12.997,17.542 11.580,17.719 10.121 C 17.772 9.685,17.772 8.595,17.719 8.159 C 17.453 5.963,16.365 3.927,14.720 2.551 C 13.415 1.458,11.815 0.766,10.121 0.561 C 9.649 0.504,8.463 0.517,7.962 0.585 M10.040 2.566 C 10.902 2.671,11.853 3.014,12.634 3.500 C 14.450 4.629,15.613 6.558,15.757 8.680 C 15.865 10.270,15.415 11.810,14.469 13.093 C 14.304 13.317,14.227 13.385,14.044 13.465 C 13.747 13.596,13.612 13.730,13.477 14.025 C 13.383 14.228,13.318 14.304,13.092 14.470 C 12.190 15.135,11.138 15.566,10.040 15.720 C 9.603 15.781,8.677 15.781,8.240 15.720 C 7.349 15.595,6.419 15.261,5.673 14.798 C 3.972 13.743,2.836 12.006,2.560 10.040 C 2.499 9.603,2.499 8.677,2.560 8.240 C 3.033 4.864,6.005 2.367,9.380 2.510 C 9.556 2.518,9.853 2.543,10.040 2.566 " stroke="none" fill-rule="evenodd" fill="black"></path></svg>